HIERARCHY
ROOT Hips
{
    OFFSET 0.000000 0.000000 0.000000
    CHANNELS 6 Xposition Yposition Zposition Zrotation Xrotation Yrotation
        JOINT Chest
        {
            OFFSET -0.000000 31.966684 -0.000000
            CHANNELS 3 Zrotation Xrotation Yrotation
            JOINT Neck
            {
                OFFSET -0.000000 23.973995 0.000000
                CHANNELS 3 Zrotation Xrotation Yrotation
                JOINT Head
                {
                    OFFSET -0.000000 10.633333 0.000000
                    CHANNELS 3 Zrotation Xrotation Yrotation
                    End Site
                    {
                        OFFSET -0.000000 16.433334 0.000000
                    }
                }
            }
            JOINT LeftCollar
            {
                OFFSET -0.000000 23.973995 0.000000
                CHANNELS 3 Zrotation Xrotation Yrotation
                JOINT LeftShoulder
                {
                    OFFSET 19.333332 -0.000000 0.000000
                    CHANNELS 3 Zrotation Xrotation Yrotation
                    JOINT LeftElbow
                    {
                        OFFSET 20.067463 0.000000 0.000000
                        CHANNELS 3 Zrotation Xrotation Yrotation
                        JOINT LeftWrist
                        {
                            OFFSET 23.490957 0.000000 0.000000
                            CHANNELS 3 Zrotation Xrotation Yrotation
                            End Site
                            {
                                OFFSET 0.000000 -14.500000 0.000000
                            }
                        }
                    }
                }
            }
            JOINT RightCollar
            {
                OFFSET -0.000000 23.973995 0.000000
                CHANNELS 3 Zrotation Xrotation Yrotation
                JOINT RightShoulder
                {
                    OFFSET -19.333332 0.000000 0.000000
                    CHANNELS 3 Zrotation Xrotation Yrotation
                    JOINT RightElbow
                    {
                        OFFSET -20.067463 0.000000 0.000000
                        CHANNELS 3 Zrotation Xrotation Yrotation
                        JOINT RightWrist
                        {
                            OFFSET -23.490957 0.000000 0.000000
                            CHANNELS 3 Zrotation Xrotation Yrotation
                            End Site
                            {
                                OFFSET -0.000000 -14.500000 0.000000
                            }
                        }
                    }
                }
            }
        }
    JOINT LeftHip
    {
        OFFSET 11.599999 0.000000 0.000000
        CHANNELS 3 Zrotation Xrotation Yrotation
        JOINT LeftKnee
        {
            OFFSET -0.000000 -35.131119 0.000000
            CHANNELS 3 Zrotation Xrotation Yrotation
            JOINT LeftAnkle
            {
                OFFSET -0.000000 -37.839104 0.000000
                CHANNELS 3 Zrotation Xrotation Yrotation
                End Site
                {
                    OFFSET -0.000000 -4.833333 16.433334
                }
            }
        }
    }
    JOINT RightHip
    {
        OFFSET -11.599999 0.000000 0.000000
        CHANNELS 3 Zrotation Xrotation Yrotation
        JOINT RightKnee
        {
            OFFSET -0.000000 -35.131119 0.000000
            CHANNELS 3 Zrotation Xrotation Yrotation
            JOINT RightAnkle
            {
                OFFSET -0.000000 -37.839104 0.000000
                CHANNELS 3 Zrotation Xrotation Yrotation
                End Site
                {
                    OFFSET -0.000000 -4.833333 16.433334
                }
            }
        }
    }
}
MOTION
Frames:    14
Frame Time:    0.010000
-41.366066    74.014107    -9.197784    -2.276447    -13.541207    -88.425110    9.969563    0.920123    -12.058210    5.079975    16.974195    26.448812    -22.573906    -27.037893    21.719677    13.843959    -1.225170    -10.128421    24.492975    -6.857947    -32.360279    1.802360    -0.205389    -13.836283    107.545479    -0.619214    -18.493958    -6.234988    -0.321825    6.032857    -11.595445    -8.876957    -0.081772    -29.952724    -21.404324    71.450401    -120.219231    24.771191    -44.879280    12.687296    -18.370123    8.366682    -44.653908    51.892097    26.076702    -4.305625    -23.495924    41.443657    -26.208138    -31.436705    -0.550023    7.914554    73.021179    -17.757330    19.092962    -23.108908    -4.726373    
-41.632885    73.831924    -8.654022    -2.437034    -13.756523    -88.499352    10.217972    0.869913    -12.613786    4.521175    17.300051    26.696260    -22.292976    -27.810289    21.810406    13.875259    -1.270995    -10.252154    24.513586    -6.527672    -31.339481    1.793333    -0.203265    -12.651992    107.446579    -0.094984    -18.861401    -6.530511    -0.325305    6.180045    -11.797270    -10.148967    -1.363060    -29.394611    -21.377769    72.639153    -120.784637    25.231478    -44.549358    12.156026    -18.135159    8.562792    -45.497162    52.645065    26.182276    -2.766596    -23.401405    42.173496    -26.335310    -31.882174    0.163608    6.902073    74.075287    -16.877085    19.906622    -22.319868    -4.984818    
-41.898506    73.691597    -8.150807    -2.610884    -13.969687    -88.527275    10.438659    0.874723    -13.215367    4.049995    17.477552    26.951950    -22.030159    -28.369726    21.957279    13.865419    -1.240787    -10.234451    24.620394    -6.078985    -30.469284    1.784727    -0.172824    -11.435042    107.355377    0.477607    -19.062048    -6.826964    -0.392247    6.322610    -11.963155    -11.306103    -2.667533    -28.893337    -21.450232    73.770386    -121.337471    25.538008    -44.128166    11.680481    -17.938148    8.531505    -46.535934    53.254021    26.649773    -1.396254    -23.191687    42.753616    -26.432665    -32.266972    0.853419    5.775137    75.060356    -15.885455    20.619556    -21.400688    -5.243176    
-42.163040    73.597244    -7.690394    -2.787962    -14.186184    -88.507584    10.619904    0.911925    -13.858398    3.698957    17.524231    27.202276    -21.827406    -28.686680    22.147438    13.784701    -1.206236    -10.074249    24.871481    -5.380387    -29.748617    1.876565    -0.155415    -10.101707    107.223801    1.133861    -18.929630    -7.122062    -0.397134    6.453618    -12.069120    -12.440310    -3.969581    -28.410824    -21.535835    74.926590    -121.944008    25.710505    -43.641281    11.250590    -17.774794    8.295300    -47.651173    53.680340    27.351965    -0.315240    -22.912647    43.166668    -26.504089    -32.572502    1.531534    4.595753    75.947212    -14.846087    21.217520    -20.396090    -5.498754    
-42.427094    73.551788    -7.273550    -2.957840    -14.408929    -88.446571    10.753898    0.955773    -14.528783    3.478650    17.465385    27.438221    -21.711678    -28.763916    22.365669    13.633058    -1.151292    -9.786181    25.228962    -4.452086    -29.177231    1.952186    -0.139566    -8.677510    107.038826    1.869831    -18.595633    -7.395317    -0.400162    6.568475    -12.139286    -13.481621    -5.256443    -28.093138    -21.777634    75.925148    -122.494560    25.695740    -43.137852    10.855193    -17.631969    7.904889    -48.709064    53.914921    28.137774    0.401986    -22.611326    43.410568    -26.552059    -32.786705    2.203016    3.417026    76.708694    -13.817088    21.697710    -19.350571    -5.746582    
-42.691681    73.557106    -6.900332    -3.111287    -14.637911    -88.354889    10.837606    0.979687    -15.205329    3.386006    17.333601    27.655430    -21.698742    -28.628849    22.597998    13.413412    -1.085808    -9.397030    25.642885    -3.322117    -28.724718    1.994112    -0.117148    -7.142482    106.758087    2.670016    -18.135242    -7.629752    -0.467193    6.668533    -12.170238    -14.382117    -6.496257    -28.012793    -22.186230    76.717651    -122.971344    25.531404    -42.696934    10.483048    -17.490416    7.424576    -49.580315    53.973194    28.856953    0.729386    -22.324780    43.494999    -26.577436    -32.903156    2.861334    2.263981    77.321999    -12.830852    22.068174    -18.305956    -5.983020    
-42.958069    73.614502    -6.570867    -3.241918    -14.870513    -88.244637    10.873258    0.960737    -15.862599    3.411132    17.150089    27.851851    -21.785959    -28.308201    22.836498    13.129956    -1.040058    -8.943400    26.037197    -2.030283    -28.360247    1.976742    -0.115227    -5.481201    106.388229    3.491252    -17.674992    -7.837273    -0.471694    6.754721    -12.134480    -15.306521    -7.675240    -28.081076    -22.658836    77.421844    -123.453011    25.252729    -42.305706    10.123957    -17.326756    6.916450    -50.160683    53.883759    29.383690    0.684753    -22.072199    43.436497    -26.579084    -32.918530    3.489964    1.130423    77.768257    -11.889100    22.342724    -17.297663    -6.209693    
-43.227612    73.725098    -6.285898    -3.346968    -15.102702    -88.126190    10.866335    0.882548    -16.473677    3.547179    16.926449    28.025408    -21.963818    -27.820257    23.078293    12.805822    -0.970409    -8.471806    26.297087    -0.714276    -28.024567    1.826950    -0.068785    -3.732922    105.988510    4.308780    -17.330681    -8.012115    -0.472597    6.830656    -12.057944    -16.248779    -8.804080    -28.437056    -23.302832    77.874062    -123.801750    24.799978    -41.949219    9.769851    -17.116209    6.427469    -50.385242    53.675056    29.630861    0.315765    -21.857731    43.256245    -26.555288    -32.830189    4.067471    -0.003300    78.032410    -10.980248    22.536970    -16.352127    -6.432549    
-43.501629    73.890236    -6.047029    -3.426956    -15.330565    -88.005920    10.823602    0.737514    -17.013887    3.778993    16.669641    28.173450    -22.211578    -27.193090    23.318295    12.461290    -0.880460    -8.035223    26.311983    0.525164    -27.637577    1.570659    -0.016576    -1.896773    105.613503    5.108556    -17.166124    -8.154902    -0.509706    6.894134    -11.944525    -17.234838    -9.879665    -29.057699    -24.093603    78.083794    -124.101303    24.280293    -41.650784    9.415427    -16.834848    5.985043    -50.229176    53.365192    29.550505    -0.311953    -21.670147    42.977886    -26.505291    -32.634888    4.575363    -1.134225    78.103134    -10.114594    22.665110    -15.484494    -6.659721    
-43.781349    74.111847    -5.856734    -3.484954    -15.551110    -87.884453    10.751337    0.525093    -17.463501    4.071332    16.408688    28.293930    -22.504856    -26.500395    23.541986    12.107850    -0.803437    -7.682849    25.990698    1.636355    -27.135786    1.252782    0.008444    0.008672    105.299072    5.902730    -17.184647    -8.284462    -0.497246    6.944295    -11.797874    -18.421129    -10.923271    -29.862865    -24.928429    78.146721    -124.396248    23.698038    -41.349812    9.058501    -16.462090    5.599859    -49.699120    52.959347    29.126841    -1.111784    -21.468620    42.622128    -26.430971    -32.326710    5.002257    -2.213318    77.971687    -9.344629    22.737381    -14.698927    -6.900127    
-44.067974    74.392715    -5.718093    -3.525275    -15.762341    -87.755890    10.654433    0.250091    -17.810225    4.361424    16.196606    28.387066    -22.811825    -25.868538    23.723896    11.742291    -0.774853    -7.445899    25.301321    2.620526    -26.484221    0.924387    0.037120    1.941019    105.051712    6.735641    -17.251781    -8.401800    -0.531505    6.981828    -11.673344    -19.783861    -11.981359    -30.898251    -25.861303    77.958260    -124.663445    23.056307    -41.047852    8.699808    -15.983228    5.272492    -48.820194    52.452847    28.366806    -1.980878    -21.180908    42.203365    -26.337786    -31.896595    5.343242    -3.152112    77.632355    -8.755564    22.759468    -13.991179    -7.162333    
-44.362419    74.736664    -5.634680    -3.550937    -15.962093    -87.607697    10.536684    -0.080169    -18.048412    4.580398    16.093531    28.454184    -23.099077    -25.436020    23.836405    11.354542    -0.752798    -7.328084    24.269310    3.458979    -25.668283    0.603672    -0.013317    3.818815    104.877396    7.607361    -17.335186    -8.535111    -0.513352    7.018600    -11.591266    -21.492805    -13.111552    -32.006611    -26.727892    77.715866    -125.027412    22.437399    -40.760216    8.343045    -15.393205    4.997989    -47.626278    51.836014    27.295004    -2.832391    -20.735228    41.732277    -26.232681    -31.334173    5.596602    -3.857935    77.080902    -8.429231    22.733187    -13.349434    -7.454693    
-44.665005    75.148682    -5.610719    -3.561380    -16.146706    -87.421051    10.400150    -0.457672    -18.177309    4.686423    16.120489    28.492247    -23.328043    -25.279976    23.863266    10.921952    -0.737118    -7.313120    22.966724    4.194152    -24.709732    0.351249    0.000224    5.618515    104.709129    8.534953    -17.058580    -8.689051    -0.560568    7.073214    -11.647901    -23.489468    -14.415260    -33.190723    -27.582918    77.347473    -125.476883    21.856327    -40.517200    7.994822    -14.699379    4.768360    -46.153442    51.099518    25.949495    -3.624007    -20.087996    41.217499    -26.120777    -30.630600    5.761609    -4.265914    76.314789    -8.412461    22.660139    -12.757858    -7.786551    
-44.975361    75.634521    -5.651474    -3.552637    -16.308664    -87.172081    10.245187    -0.879950    -18.198162    4.688432    16.254507    28.491629    -23.470112    -25.386511    23.803862    10.429279    -0.708134    -7.383695    21.445040    4.818760    -23.657259    0.187532    0.016171    7.298064    104.506210    9.440979    -16.379539    -8.891513    -0.565931    7.172940    -11.899369    -25.909433    -15.990849    -34.247776    -28.266878    77.118095    -126.136032    21.415556    -40.358631    7.666059    -13.921109    4.570793    -44.438183    50.236328    24.379431    -4.354347    -19.220303    40.663555    -26.000055    -29.779818    5.839002    -4.351997    75.332970    -8.705883    22.550381    -12.200015    -8.170354    
